<?xml version="1.0" encoding="iso-8859-1"?>
<!-- Generator: Adobe Illustrator 18.0.0, SVG Export Plug-In . SVG Version: 6.00 Build 0)  -->
<!DOCTYPE svg PUBLIC "-//W3C//DTD SVG 1.1//EN" "http://www.w3.org/Graphics/SVG/1.1/DTD/svg11.dtd">
<svg version="1.1" id="Capa_1" xmlns="http://www.w3.org/2000/svg" xmlns:xlink="http://www.w3.org/1999/xlink" x="0px" y="0px"
	 viewBox="0 0 479.45 479.45" style="enable-background:new 0 0 479.45 479.45;" xml:space="preserve">
<g>
	<path d="M55.092,336.396h369.267c16.112,0,29.172-13.061,29.172-29.173V65.135c0-16.112-13.06-29.173-29.172-29.173H55.092
		c-16.112,0-29.172,13.06-29.172,29.173v242.088C25.919,323.335,38.98,336.396,55.092,336.396z M63.641,82.241
		c0-4.349,3.518-7.867,7.865-7.867h336.423c4.348,0,7.865,3.518,7.865,7.867V290.11c0,4.349-3.518,7.867-7.865,7.867H71.506
		c-4.348,0-7.865-3.518-7.865-7.867V82.241z"/>
	<path d="M478.269,422.622l-20.864-49.43c-2.344-5.566-7.803-9.185-13.845-9.185H35.89c-6.041,0-11.5,3.619-13.844,9.185
		l-20.864,49.43c-1.958,4.637-1.46,9.947,1.32,14.148c2.788,4.193,7.485,6.717,12.524,6.717h449.398
		c5.039,0,9.737-2.524,12.525-6.717C479.728,432.569,480.226,427.259,478.269,422.622z"/>
	<path d="M123.756,216.268v-26.129h31.912v26.191c0,5.341,4.325,9.667,9.667,9.667c5.343,0,9.667-4.325,9.667-9.667v-66.365
		c0-5.343-4.324-9.669-9.667-9.669c-13.309,0-9.667,19.397-9.667,32.93h-31.912c0-13.634,3.564-32.93-9.729-32.93
		c-5.373,0-9.731,4.357-9.731,9.73v66.24C104.296,229.142,123.756,229.142,123.756,216.268z"/>
	<path d="M199.827,225.997h38.846c10.507,0,10.507-15.894,0-15.894h-27.269v-20.344h23.659c4.356,0,7.881-3.525,7.881-7.881
		c0-4.356-3.526-7.881-7.881-7.881h-23.659v-17.804h25.483c4.395,0,7.951-3.557,7.951-7.951c0-4.387-3.556-7.945-7.951-7.945h-37.06
		c-4.357,0-7.881,3.525-7.881,7.881v69.938C191.945,222.471,195.469,225.997,199.827,225.997z"/>
	<path d="M266.983,225.997h38.296c10.77,0,10.77-16.274,0-16.274h-25.935v-59.695c0-5.373-4.356-9.73-9.729-9.73
		c-5.373,0-9.729,4.357-9.729,9.73V218.9C259.886,222.821,263.062,225.997,266.983,225.997z"/>
	<path d="M334.497,225.997c12.812,0,9.605-17.602,9.605-30.64c15.902,2.229,42.333-2.328,42.333-28.993
		c0-19.436-15.66-26.703-35.344-26.703c-10.118,0-26.199-1.468-26.199,7.983v68.748
		C324.892,221.695,329.194,225.997,334.497,225.997z M344.102,155.051c31.284-8.519,30.702,32.542,0,25.297V155.051z"/>
</g>
<g>
</g>
<g>
</g>
<g>
</g>
<g>
</g>
<g>
</g>
<g>
</g>
<g>
</g>
<g>
</g>
<g>
</g>
<g>
</g>
<g>
</g>
<g>
</g>
<g>
</g>
<g>
</g>
<g>
</g>
</svg>
